<svg preserveAspectRatio="none" overflow="visible" style="display: block;" width="22.0478" height="23.8852" viewBox="0 0 22.0478 23.8852" fill="none" xmlns="http://www.w3.org/2000/svg">
<g id="Copy glyph">
<path id="Vector" d="M8.26795 5.51195H7.59544M7.59544 5.51195H4.59331C4.10602 5.51195 3.63869 5.70552 3.29413 6.05008C2.94956 6.39465 2.75599 6.86198 2.75599 7.34927V20.2105M7.59544 5.51195C7.43556 5.78888 7.34929 6.1053 7.34929 6.43061V19.2919C7.34929 19.7791 7.54286 20.2465 7.88743 20.591C8.23199 20.9356 8.69932 21.1292 9.18661 21.1292H18.3732C18.8605 21.1292 19.3278 20.9356 19.6724 20.591C20.017 20.2465 20.2105 19.7791 20.2105 19.2919V6.43061C20.2105 5.94332 20.017 5.47599 19.6724 5.13142C19.3278 4.78686 18.8605 4.59329 18.3732 4.59329H9.18661C8.69932 4.59329 8.23199 4.78686 7.88743 5.13142C7.77289 5.24596 7.67504 5.37406 7.59544 5.51195Z" stroke-width="1.46986" stroke="#715C9D"/>
</g>
</svg>
